<svg xmlns="http://www.w3.org/2000/svg" width="1068" height="337" fill="none" viewBox="0 0 1068 337"><g clip-path="url(#a)"><path fill="#b4b4b4" d="M200.88 9.048c7.937-.991 26.724 13.53 38.06 26.035a.67.67 0 0 0 .557.214c7.63-.694 11.97-.862 18.809-.03a.66.66 0 0 0 .692-.4c1.373-3.31 1.175-4.554 9.458-12.513 8.656-8.316 19.974-12.973 25.966-10.977s7.656 12.973 6.991 27.278c-.66 14.17-1.89 19.228-4.584 28.026a.7.7 0 0 0 .033.485c4.163 9.01 1.56 19.428 2.22 23.716.666 4.324 17.476 11.822 18.642 21.955 1.166 10.134-19.307 22.953-21.305 23.951-1.884.942-7.493 1.926-12.713 1.994a.684.684 0 0 0-.643.89c5.051 15.702 4.67 33.863 3.037 42.025-1.655 8.27-6.928 24.442-13.537 33.119a.7.7 0 0 0-.133.336c-4.253 38.639-3.735 51.784 1.277 62.849a.67.67 0 0 0 .228.272c10.277 7.114 14.992 11.255 18.157 19.189l4.464 13.066a.674.674 0 0 1-.364.825c-42.937 19.287-66.701 24.471-110.496 18.395a.7.7 0 0 0-.256.013c-38.519 9.652-74.796 9.935-94.415-2.36-19.64-12.308-24.634-25.947-23.968-36.592.661-10.575 6.235-23.883 19.052-34.062a.68.68 0 0 0 .256-.526c.06-37.577 18.043-74.591 41.278-98.143 23.226-23.54 27.185-23.589 47.404-43.381a.7.7 0 0 0 .204-.474c.307-19.08 2.929-28.392 10.881-42.787a.7.7 0 0 0 .082-.385c-2.661-30.128 6.694-61.007 14.666-62.003"/><path fill="#fff" d="m184.816 216.283 5.818-23.606c.192-.78 1.375-.624 1.349.179-.309 9.548-.702 26.362.241 29.425 1.332 4.325 19.974 64.203 23.303 68.528 3.329 4.324 7.309 9.321 9.654 15.634 1.048 2.237 1.947 3.147 3.897 4.27a.7.7 0 0 0 .207.076c4.798.905 7.516.88 11.79.117a.66.66 0 0 0 .509-.86l-1.461-4.381c-.253-.756.797-1.235 1.204-.55l2.998 5.046a.66.66 0 0 0 .481.318c2.288.295 3.751.184 6.066-.778a.654.654 0 0 0 .341-.868l-1.858-4.219c-.301-.683.578-1.267 1.092-.727l2.318 2.438c.44.464 1.194.102 1.069-.526-1.247-6.254-4.995-10.357-16.449-17.187a.6.6 0 0 1-.29-.353c-.869-2.773-9.567-31.03-9.251-49.678.311-18.351 10.484-25.879 14.013-43.155.149-.73 1.217-.748 1.33-.012 1.499 9.72.201 18.379-5.326 32.735-.226.588.408 1.134.946.803 19.603-12.071 35.02-34.812 36.64-41.933 1.659-7.291 3.873-29.259-3.579-50.66a.66.66 0 0 0-.301-.359c-6.15-3.454-11.756-5.02-22.883-6.687-.729-.109-.759-1.071-.031-1.182 12.127-1.829 25.015 1.28 43.963 4.538.794.137 1.082-.957.325-1.233l-18.132-6.606c-.765-.279-.454-1.425.348-1.279l14.272 2.592c7.675 1.375 11.04.56 14.761-3.675a.663.663 0 0 0-.212-1.025c-4.137-2.101-5.557-3.972-5.89-8.208a.6.6 0 0 1 .004-.13c.42-3.416 1.823-4.864 5.86-5.869.603-.149.744-.992.222-1.328-8.634-5.549-15.411-15.841-15.411-18.353 0-2.661 1.664-4.657 2.663-13.639.987-8.88-23.078-34.015-49.036-33.622a.66.66 0 0 0-.609.874c2.283 6.774 2.575 9.43 1.456 13.185-.157.526-.849.618-1.159.166-11.195-16.347-28.391-33.546-36.205-35.824-7.872-2.294-18.288 35.023-6.533 57.55a.68.68 0 0 1-.598.998h-4.172a.67.67 0 0 0-.549.29c-8.714 12.692-9.602 22.654-8.476 41.937a.68.68 0 0 1-.258.571c-36.541 28.535-55.691 41.444-73.29 72.966-17.555 31.446-16.21 41.055-16.31 70.415 0 .264-.159.51-.4.616-4.475 1.967-5.753 2.961-11.253 7.809-5.659 4.99-10.652 23.951-.665 35.927s25.299 19.627 42.61 20.625c17.31.998 15.313.665 21.971.332 6.658-.332 41.944-10.645 48.269-11.975s9.321-1.663 18.309-1.663-19.308-29.274-36.285-36.925c-14.62-6.588-51.625-12.707-71.679-10.436-.815.092-1.404-1.622-.646-1.935 17.428-7.181 40.177-7.507 71.66 3.814a.68.68 0 0 0 .873-.434c7.275-23.621 9.989-36.601-8.55-51.9-10.126-7.649-24.21-5.276-43.291 4.128-.707.348-1.333-.575-.723-1.074 21.557-17.619 38.187-18.956 57.856-3.688.383.298.957.111 1.073-.36m105.611-196.59c3.888 1.62 1.994 21.243-1.384 36.362a.66.66 0 0 1-1.134.298l-2.651-2.89a.66.66 0 0 1-.173-.405c-.254-3.775-.171-6.293.445-9.666.126-.69-.768-1.124-1.215-.583l-4.131 4.998a.667.667 0 0 1-.919.104l-8.983-6.882a.66.66 0 0 1-.15-.893c6.462-9.632 16.371-22.077 20.295-20.443"/><path fill="#b4b4b4" d="M202.877 48.302c.319 6.058 1.929 13.474 6.981 20.101.301.396.914.313 1.143-.129 1.237-2.388 2.785-3.696 5.884-5.336a.685.685 0 0 0 .27-.949c-1.518-2.598-2.11-4.5-2.261-7.693a.653.653 0 0 1 .9-.632l4.504 1.801c.507.202 1.026-.253.875-.777-3.32-11.482-12.424-27.296-15.633-26.013-3.329 1.33-2.996 13.306-2.663 19.627m47.999 39.861c-.826-.181-3.346-.78-4.723-1.606-1.665-.998 6.325-2.994 6.325-2.994 4.046-1.157 6.211-1.39 9.862-1.332a.7.7 0 0 1 .239.049c4.824 1.994 7.823 6.468 8.716 12.877.078.553-.539.93-1.019.643-.953-.569-2.231-1.26-2.818-1.26h-9.202a.7.7 0 0 1-.236-.044c-3.568-1.392-4.769-3.082-6.721-6.043a.68.68 0 0 0-.423-.29"/><path fill="#fff" d="M257.804 89.884a2.662 2.662 0 1 0-2.663-2.662 2.66 2.66 0 0 0 2.663 2.662m-16.312 150.693c1.123-2.523 14.785-13.086 19.046-16.34.469-.358 1.136.027 1.07.614-2.298 20.456 1.88 43.105 2.854 46.996.998 3.992.674 9.246 3.329 11.31 2.654 2.066 12.588 8.579 13.648 10.645 1.042 2.031 3.352 6.205 1.754 8.527a.6.6 0 0 1-.226.191c-2.443 1.206-3.932 1.297-6.086 1.269a.66.66 0 0 1-.603-.407l-2.55-6.087c-.317-.756-1.456-.381-1.261.415l1.492 6.099a.66.66 0 0 1-.481.8c-3.073.763-5.422 1.078-11.158.858a.67.67 0 0 1-.628-.53c-.505-2.356-1.09-4.057-3.888-7.475-2.996-3.66-7.324-7.651-9.321-11.643s-8.322-42.248-6.991-45.242"/></g><path fill="#b4b4b4" d="M462.227 132.5h-19.909q-.545-3.864-2.227-6.864a17.5 17.5 0 0 0-4.318-5.181q-2.637-2.137-6.091-3.273-3.41-1.137-7.409-1.137-7.227 0-12.591 3.591-5.364 3.546-8.318 10.364-2.955 6.772-2.955 16.455 0 9.954 2.955 16.727 3 6.772 8.363 10.227 5.364 3.455 12.409 3.455 3.955 0 7.319-1.046 3.408-1.045 6.045-3.045a17.6 17.6 0 0 0 4.364-4.955q1.772-2.909 2.454-6.636l19.909.091q-.773 6.409-3.863 12.363-3.046 5.91-8.228 10.591-5.136 4.637-12.272 7.364-7.092 2.682-16.046 2.682-12.454 0-22.273-5.637-9.772-5.636-15.454-16.318-5.636-10.681-5.636-25.863 0-15.227 5.727-25.91 5.727-10.681 15.545-16.272 9.818-5.637 22.091-5.637 8.091 0 15 2.273 6.956 2.273 12.318 6.636 5.364 4.319 8.728 10.591 3.408 6.273 4.363 14.364m33.659 61.818q-6.681 0-11.909-2.318-5.227-2.364-8.272-6.955-3-4.635-3-11.545 0-5.818 2.136-9.773t5.818-6.363q3.683-2.41 8.364-3.637a64 64 0 0 1 9.909-1.727q6.09-.636 9.818-1.182 3.727-.591 5.409-1.727t1.682-3.364v-.272q0-4.319-2.727-6.682-2.682-2.364-7.637-2.364-5.227 0-8.318 2.318-3.091 2.273-4.091 5.728L475.159 143q1.364-6.363 5.364-11 4-4.682 10.318-7.182 6.363-2.545 14.727-2.545 5.818 0 11.137 1.363 5.363 1.364 9.5 4.228a20.55 20.55 0 0 1 6.59 7.363q2.41 4.455 2.41 10.682V193h-18.364v-9.682h-.546a19.7 19.7 0 0 1-4.5 5.773q-2.818 2.454-6.772 3.864-3.955 1.363-9.137 1.363m5.546-13.363q4.272 0 7.545-1.682 3.273-1.727 5.137-4.637 1.863-2.908 1.863-6.591v-7.409q-.909.591-2.5 1.091-1.545.455-3.5.864-1.955.363-3.909.682-1.955.273-3.545.5-3.41.5-5.955 1.591t-3.954 2.954q-1.41 1.818-1.409 4.546 0 3.954 2.863 6.045 2.91 2.046 7.364 2.046m68.159-81.046V193h-19.364V99.91zm35.42 94.409q-6.681 0-11.909-2.318-5.227-2.364-8.272-6.955-3-4.635-3-11.545 0-5.818 2.136-9.773t5.818-6.363q3.683-2.41 8.364-3.637a64 64 0 0 1 9.909-1.727q6.09-.636 9.818-1.182 3.727-.591 5.409-1.727t1.682-3.364v-.272q0-4.319-2.727-6.682-2.682-2.364-7.637-2.364-5.227 0-8.318 2.318-3.091 2.273-4.091 5.728L584.284 143q1.364-6.363 5.364-11 4-4.682 10.318-7.182 6.363-2.545 14.727-2.545 5.818 0 11.137 1.363 5.363 1.364 9.5 4.228a20.55 20.55 0 0 1 6.59 7.363q2.41 4.455 2.41 10.682V193h-18.364v-9.682h-.546a19.7 19.7 0 0 1-4.5 5.773q-2.817 2.454-6.772 3.864-3.955 1.363-9.137 1.363m5.546-13.363q4.272 0 7.545-1.682 3.273-1.727 5.137-4.637 1.863-2.908 1.863-6.591v-7.409q-.909.591-2.5 1.091-1.545.455-3.5.864-1.954.363-3.909.682-1.955.273-3.545.5-3.41.5-5.955 1.591t-3.954 2.954q-1.41 1.818-1.409 4.546 0 3.954 2.863 6.045 2.91 2.046 7.364 2.046m80.25 39.681q-9.41 0-16.137-2.591-6.682-2.545-10.636-6.954-3.954-4.41-5.136-9.909l17.909-2.409q.818 2.091 2.591 3.909t4.682 2.909q2.954 1.136 7.181 1.136 6.318 0 10.409-3.091 4.137-3.045 4.137-10.227v-12.773h-.818q-1.274 2.91-3.819 5.5-2.545 2.592-6.545 4.228T685.08 192q-7.865 0-14.319-3.636-6.408-3.682-10.227-11.228-3.773-7.59-3.773-19.181 0-11.865 3.864-19.819t10.273-11.909q6.454-3.954 14.136-3.954 5.864 0 9.818 2 3.955 1.954 6.364 4.909 2.454 2.909 3.773 5.727h.727v-11.727h19.227v70.5q0 8.909-4.363 14.909-4.365 6-12.091 9-7.683 3.045-17.682 3.045m.409-43.181q4.681 0 7.909-2.319 3.273-2.363 5-6.727 1.773-4.409 1.773-10.545t-1.728-10.637q-1.727-4.545-5-7.045t-7.954-2.5q-4.773 0-8.046 2.591-3.272 2.545-4.954 7.091-1.682 4.545-1.682 10.5 0 6.045 1.682 10.454 1.727 4.364 4.954 6.773 3.273 2.364 8.046 2.364m80.682 16.909q-10.591 0-18.318-4.5-7.682-4.546-11.864-12.637-4.182-8.136-4.182-18.863 0-10.819 4.182-18.909 4.182-8.137 11.864-12.637 7.726-4.545 18.318-4.545 10.59 0 18.272 4.545 7.728 4.5 11.91 12.637 4.18 8.09 4.181 18.909 0 10.727-4.181 18.863-4.182 8.09-11.91 12.637-7.682 4.5-18.272 4.5m.091-15q4.818 0 8.045-2.728 3.228-2.772 4.864-7.545 1.682-4.773 1.682-10.864 0-6.09-1.682-10.863-1.636-4.773-4.864-7.546t-8.045-2.773q-4.864 0-8.182 2.773-3.273 2.773-4.955 7.546-1.636 4.772-1.636 10.863t1.636 10.864q1.682 4.773 4.955 7.545 3.318 2.728 8.182 2.728m46.863 39.818v-96h19.091v11.727h.864q1.273-2.818 3.682-5.727 2.454-2.955 6.363-4.909 3.955-2 9.818-2 7.636 0 14.091 4 6.455 3.954 10.319 11.954 3.863 7.955 3.863 19.955 0 11.682-3.773 19.727-3.726 8-10.181 12.136-6.41 4.092-14.364 4.091-5.637 0-9.591-1.863-3.909-1.864-6.409-4.682-2.5-2.863-3.818-5.773h-.591v37.364zm18.955-61.091q0 6.227 1.727 10.864 1.727 4.636 5 7.227 3.272 2.545 7.955 2.545 4.727 0 8-2.591 3.272-2.636 4.954-7.272 1.727-4.682 1.727-10.773 0-6.046-1.681-10.636-1.683-4.592-4.955-7.182-3.273-2.592-8.045-2.591-4.728 0-8 2.5-3.228 2.5-4.955 7.091-1.727 4.59-1.727 10.818m106.818 5.182v-40.091h19.364V193h-18.591v-12.682h-.728q-2.363 6.137-7.863 9.864-5.455 3.727-13.318 3.727-7 0-12.319-3.182-5.318-3.181-8.318-9.045-2.953-5.864-3-14.046v-44.454h19.364v41q.045 6.182 3.318 9.773t8.773 3.59q3.5 0 6.545-1.59 3.046-1.636 4.909-4.819 1.91-3.181 1.864-7.863m92.945-20.182-17.73 1.091a9.1 9.1 0 0 0-1.95-4.091q-1.5-1.864-3.96-2.955c-1.6-.757-3.53-1.136-5.77-1.136q-4.5 0-7.59 1.909-3.093 1.864-3.093 5 0 2.5 2 4.227t6.863 2.773l12.64 2.546q10.185 2.09 15.18 6.727c3.33 3.091 5 7.151 5 12.182q0 6.863-4.05 12.045c-2.66 3.455-6.33 6.152-11 8.091-4.63 1.909-9.98 2.864-16.04 2.864q-13.866 0-22.093-5.773-8.181-5.819-9.591-15.818l19.046-1q.864 4.227 4.182 6.454 3.323 2.182 8.496 2.182c3.4 0 6.12-.651 8.19-1.954q3.135-2 3.18-5.137c-.03-1.757-.78-3.197-2.23-4.318-1.45-1.152-3.7-2.03-6.73-2.636l-12.088-2.409q-10.227-2.046-15.227-7.091-4.955-5.046-4.955-12.864 0-6.727 3.636-11.591 3.682-4.863 10.319-7.5 6.68-2.636 15.635-2.636 13.23 0 20.82 5.591 7.635 5.59 8.91 15.227"/><path fill="#74c0fc" d="M374.528 229.909h7.586l8.011 19.546h.341l8.011-19.546h7.585V259h-5.965v-18.935h-.242l-7.528 18.793h-4.063l-7.528-18.864h-.242V259h-5.966zm46.346 29.517q-3.309 0-5.724-1.406-2.4-1.42-3.708-3.949-1.306-2.542-1.306-5.895 0-3.38 1.306-5.909 1.307-2.542 3.708-3.949 2.415-1.42 5.724-1.42t5.711 1.42q2.414 1.407 3.721 3.949 1.307 2.529 1.307 5.909 0 3.352-1.307 5.895-1.307 2.529-3.721 3.949-2.401 1.406-5.711 1.406m.029-4.687q1.505 0 2.514-.853 1.008-.865 1.52-2.358.525-1.492.525-3.394 0-1.904-.525-3.395-.512-1.493-1.52-2.358-1.009-.867-2.514-.867-1.52 0-2.557.867-1.023.865-1.548 2.358-.512 1.491-.512 3.395 0 1.902.512 3.394.525 1.493 1.548 2.358 1.036.853 2.557.853m22.684 4.616q-2.486 0-4.502-1.278-2.004-1.293-3.182-3.793-1.165-2.514-1.165-6.165 0-3.75 1.207-6.235 1.207-2.5 3.211-3.736a8.2 8.2 0 0 1 4.417-1.25q1.833 0 3.054.625 1.236.61 1.989 1.534.766.908 1.165 1.79h.184v-10.938h6.037V259h-5.966v-3.494h-.255a7.8 7.8 0 0 1-1.208 1.804q-.767.88-2.003 1.463-1.22.582-2.983.582m1.918-4.815q1.462 0 2.472-.796 1.022-.809 1.562-2.258.554-1.45.554-3.395t-.54-3.381q-.54-1.434-1.562-2.216-1.023-.781-2.486-.781-1.491 0-2.514.81t-1.549 2.244-.525 3.324q0 1.904.525 3.366.54 1.45 1.549 2.273 1.023.81 2.514.81m25.415 4.886q-3.366 0-5.795-1.364-2.415-1.377-3.722-3.892-1.306-2.528-1.306-5.98 0-3.366 1.306-5.909 1.308-2.542 3.679-3.963 2.387-1.42 5.597-1.42 2.159 0 4.02.696a8.9 8.9 0 0 1 3.267 2.059q1.406 1.378 2.187 3.466.782 2.074.782 4.858v1.662h-18.424v-3.75h12.728q0-1.307-.569-2.315a4.07 4.07 0 0 0-1.576-1.577q-.995-.582-2.316-.582-1.378 0-2.443.639-1.052.625-1.647 1.69a4.77 4.77 0 0 0-.611 2.344v3.565q0 1.62.596 2.799.61 1.179 1.719 1.818t2.628.639q1.009 0 1.846-.284a3.8 3.8 0 0 0 1.435-.852q.597-.569.909-1.392l5.597.369a7.65 7.65 0 0 1-1.747 3.523q-1.307 1.491-3.381 2.329-2.06.825-4.759.824m13.964-.426v-21.818h5.866v3.807h.227q.597-2.032 2.003-3.069 1.406-1.05 3.239-1.051.454 0 .98.057.525.057.923.156v5.37a8 8 0 0 0-1.179-.228 11 11 0 0 0-1.378-.099q-1.335 0-2.386.582a4.3 4.3 0 0 0-1.648 1.591q-.596 1.023-.596 2.358V259zm22.418-12.614V259h-6.051v-21.818h5.767v3.849h.255a6.1 6.1 0 0 1 2.429-3.011q1.705-1.122 4.134-1.122 2.273 0 3.963.994 1.69.995 2.628 2.841.937 1.833.937 4.375V259h-6.051v-12.812q.015-2.003-1.023-3.126-1.037-1.136-2.855-1.136-1.221 0-2.159.526-.923.525-1.449 1.534-.51.995-.525 2.4m22.368 12.983a3.32 3.32 0 0 1-2.414-.994 3.32 3.32 0 0 1-.995-2.415q0-1.392.995-2.386a3.32 3.32 0 0 1 2.414-.994q1.365 0 2.387.994t1.023 2.386q0 .938-.483 1.719a3.7 3.7 0 0 1-1.236 1.236 3.26 3.26 0 0 1-1.691.454m16.382-.369v-29.091h19.261v5.071h-13.111v6.932h11.833v5.071h-11.833V259zm29.233.412q-2.088 0-3.722-.724-1.634-.739-2.585-2.174-.938-1.449-.938-3.608 0-1.818.668-3.054a5.4 5.4 0 0 1 1.818-1.988 8.8 8.8 0 0 1 2.614-1.137 20 20 0 0 1 3.097-.539 79 79 0 0 0 3.068-.37q1.164-.184 1.69-.54.525-.355.526-1.051v-.085q0-1.35-.853-2.088-.838-.739-2.386-.739-1.634 0-2.599.725-.966.71-1.279 1.79l-5.596-.455q.425-1.99 1.676-3.437 1.25-1.464 3.224-2.245 1.989-.795 4.602-.795 1.819 0 3.48.426 1.677.426 2.969 1.321a6.4 6.4 0 0 1 2.06 2.301q.753 1.392.753 3.338V259h-5.739v-3.026h-.17a6.1 6.1 0 0 1-1.407 1.804q-.88.767-2.116 1.208-1.236.426-2.855.426m1.733-4.176q1.335 0 2.358-.526a4.2 4.2 0 0 0 1.605-1.449q.582-.909.582-2.059v-2.316q-.284.185-.781.341-.483.143-1.094.27-.61.114-1.221.213l-1.108.156q-1.066.157-1.861.498t-1.236.923q-.44.568-.44 1.42 0 1.236.895 1.89.909.639 2.301.639m33.402-11.833-5.54.341a2.86 2.86 0 0 0-.611-1.278 3.2 3.2 0 0 0-1.236-.923q-.753-.355-1.804-.355-1.406 0-2.372.596-.966.582-.966 1.563 0 .78.625 1.321.625.539 2.145.866l3.949.796q3.182.653 4.744 2.102 1.563 1.449 1.563 3.807 0 2.145-1.264 3.764-1.25 1.619-3.438 2.528-2.173.895-5.014.895-4.332 0-6.903-1.804-2.557-1.818-2.998-4.943l5.952-.313q.27 1.322 1.307 2.018 1.037.681 2.656.681 1.591 0 2.557-.61.98-.625.994-1.606-.014-.824-.696-1.349-.681-.54-2.102-.824l-3.778-.753q-3.196-.638-4.759-2.216-1.548-1.577-1.548-4.019 0-2.103 1.136-3.623 1.15-1.52 3.225-2.343 2.087-.825 4.886-.824 4.133 0 6.506 1.747 2.387 1.748 2.784 4.758m15.912-6.221v4.545h-13.139v-4.545zm-10.156-5.227h6.051v20.34q0 .839.256 1.307.255.455.71.639.47.185 1.08.185.426 0 .852-.071.426-.085.653-.128l.952 4.503q-.455.143-1.278.327-.824.199-2.003.241-2.187.086-3.835-.582-1.634-.667-2.543-2.074t-.895-3.551zm17.635 27.414a3.32 3.32 0 0 1-2.415-.994 3.32 3.32 0 0 1-.994-2.415q0-1.392.994-2.386a3.32 3.32 0 0 1 2.415-.994q1.364 0 2.386.994t1.023 2.386q0 .938-.483 1.719a3.7 3.7 0 0 1-1.236 1.236 3.25 3.25 0 0 1-1.69.454m32.163-21.093q-.171-1.719-1.463-2.671t-3.509-.952q-1.506 0-2.542.427-1.038.411-1.591 1.15a2.77 2.77 0 0 0-.54 1.676q-.028.782.327 1.364.369.582 1.008 1.008.64.413 1.477.725.839.298 1.79.511l2.614.625q1.903.426 3.494 1.137 1.591.71 2.756 1.747a7.3 7.3 0 0 1 1.804 2.443q.653 1.406.667 3.224-.014 2.671-1.363 4.631-1.335 1.946-3.864 3.026-2.514 1.065-6.065 1.065-3.523 0-6.137-1.08-2.6-1.079-4.062-3.196-1.45-2.13-1.52-5.27h5.952q.099 1.464.838 2.444.752.966 2.003 1.463 1.263.483 2.855.483 1.562 0 2.713-.455 1.164-.454 1.804-1.264a2.92 2.92 0 0 0 .639-1.861q0-.98-.582-1.648-.568-.667-1.677-1.136-1.094-.469-2.684-.852l-3.168-.796q-3.678-.894-5.81-2.798-2.13-1.903-2.116-5.128-.014-2.642 1.406-4.616 1.435-1.975 3.935-3.083 2.5-1.107 5.682-1.108 3.238 0 5.653 1.108 2.429 1.108 3.779 3.083 1.348 1.974 1.392 4.574zm20.259 21.15q-3.366 0-5.795-1.364-2.415-1.377-3.722-3.892-1.307-2.528-1.307-5.98 0-3.366 1.307-5.909t3.679-3.963q2.386-1.42 5.596-1.42 2.16 0 4.02.696a8.9 8.9 0 0 1 3.267 2.059q1.407 1.378 2.188 3.466.781 2.074.781 4.858v1.662h-18.423v-3.75h12.727q0-1.307-.568-2.315a4.07 4.07 0 0 0-1.577-1.577q-.994-.582-2.315-.582-1.378 0-2.443.639-1.051.625-1.648 1.69-.596 1.051-.611 2.344v3.565q0 1.62.597 2.799.61 1.179 1.719 1.818 1.107.639 2.627.639 1.009 0 1.847-.284a3.8 3.8 0 0 0 1.435-.852q.596-.569.909-1.392l5.596.369a7.64 7.64 0 0 1-1.747 3.523q-1.307 1.491-3.381 2.329-2.06.825-4.758.824m23.821 0q-3.352 0-5.767-1.42-2.4-1.435-3.693-3.978-1.28-2.542-1.279-5.852 0-3.352 1.293-5.881 1.307-2.542 3.707-3.963 2.401-1.434 5.711-1.434 2.855 0 5 1.037t3.394 2.912 1.378 4.403h-5.71q-.242-1.634-1.278-2.628-1.023-1.008-2.685-1.008-1.406 0-2.457.767-1.037.753-1.62 2.201-.582 1.45-.582 3.509 0 2.088.568 3.551.582 1.463 1.634 2.23 1.05.767 2.457.767 1.037 0 1.861-.426a3.6 3.6 0 0 0 1.378-1.236q.553-.823.724-1.974h5.71q-.141 2.5-1.363 4.403-1.208 1.89-3.338 2.955t-5.043 1.065m27.61-9.716v-12.528h6.051V259h-5.809v-3.963h-.228a6.44 6.44 0 0 1-2.457 3.082q-1.705 1.165-4.162 1.165-2.188 0-3.849-.994t-2.6-2.827q-.923-1.833-.937-4.389v-13.892h6.051v12.812q.014 1.932 1.037 3.054t2.741 1.122a4.35 4.35 0 0 0 2.046-.497q.95-.512 1.534-1.505.596-.994.582-2.458m10.891 9.29v-21.818h5.867v3.807h.227q.597-2.032 2.003-3.069 1.406-1.05 3.239-1.051.454 0 .98.057.525.057.923.156v5.37a8 8 0 0 0-1.179-.228 11 11 0 0 0-1.378-.099q-1.335 0-2.386.582a4.3 4.3 0 0 0-1.648 1.591q-.596 1.023-.596 2.358V259zm25.295.426q-3.366 0-5.795-1.364-2.415-1.377-3.722-3.892-1.307-2.528-1.307-5.98 0-3.366 1.307-5.909t3.679-3.963q2.387-1.42 5.597-1.42 2.159 0 4.02.696a8.9 8.9 0 0 1 3.267 2.059q1.406 1.378 2.187 3.466.781 2.074.781 4.858v1.662h-18.423v-3.75h12.727q0-1.307-.568-2.315a4.07 4.07 0 0 0-1.577-1.577q-.993-.582-2.315-.582-1.377 0-2.443.639-1.051.625-1.648 1.69-.597 1.051-.611 2.344v3.565q0 1.62.597 2.799.61 1.179 1.719 1.818 1.107.639 2.628.639 1.008 0 1.846-.284a3.8 3.8 0 0 0 1.435-.852q.597-.569.909-1.392l5.597.369a7.65 7.65 0 0 1-1.748 3.523q-1.307 1.491-3.38 2.329-2.06.825-4.759.824m17.5-.057a3.32 3.32 0 0 1-2.415-.994 3.32 3.32 0 0 1-.994-2.415q0-1.392.994-2.386a3.32 3.32 0 0 1 2.415-.994q1.364 0 2.387.994t1.022 2.386q0 .938-.483 1.719a3.7 3.7 0 0 1-1.236 1.236 3.25 3.25 0 0 1-1.69.454"/><defs><clipPath id="a"><path fill="#fff" d="M67 9h251v328H67z"/></clipPath></defs></svg>